<svg xmlns="http://www.w3.org/2000/svg" viewBox="0 0 192 192">
  <rect width="192" height="192" rx="42" fill="#fdf6e6"/>
  <g transform="translate(36 36) scale(5)" fill="none" stroke="#6d4d0a"
     stroke-width="2" stroke-linecap="round" stroke-linejoin="round">
    <path d="M14 18V6a2 2 0 0 0-2-2H4a2 2 0 0 0-2 2v11a1 1 0 0 0 1 1h2"/>
    <path d="M15 18H9"/>
    <path d="M19 18h2a1 1 0 0 0 1-1v-3.65a1 1 0 0 0-.22-.624l-3.48-4.35A1 1 0 0 0 17.52 8H14"/>
    <circle cx="17" cy="18" r="2"/>
    <circle cx="7" cy="18" r="2"/>
  </g>
</svg>
